<?xml version="1.0" encoding="UTF-8" standalone="no"?>
<!-- Created with Inkscape (http://www.inkscape.org/) -->

<svg
   xmlns:dc="http://purl.org/dc/elements/1.1/"
   xmlns:cc="http://creativecommons.org/ns#"
   xmlns:rdf="http://www.w3.org/1999/02/22-rdf-syntax-ns#"
   xmlns:svg="http://www.w3.org/2000/svg"
   xmlns="http://www.w3.org/2000/svg"
   xmlns:sodipodi="http://sodipodi.sourceforge.net/DTD/sodipodi-0.dtd"
   xmlns:inkscape="http://www.inkscape.org/namespaces/inkscape"
   version="1.0"
   width="800"
   height="700"
   id="svg2"
   inkscape:version="0.48.4 r9939"
   sodipodi:docname="EX-logo.svg">
  <metadata
     id="metadata2992">
    <rdf:RDF>
      <cc:Work
         rdf:about="">
        <dc:format>image/svg+xml</dc:format>
        <dc:type
           rdf:resource="http://purl.org/dc/dcmitype/StillImage" />
        <dc:title></dc:title>
      </cc:Work>
    </rdf:RDF>
  </metadata>
  <sodipodi:namedview
     pagecolor="#ffffff"
     bordercolor="#666666"
     borderopacity="1"
     objecttolerance="10"
     gridtolerance="10"
     guidetolerance="10"
     inkscape:pageopacity="0"
     inkscape:pageshadow="2"
     inkscape:window-width="1280"
     inkscape:window-height="968"
     id="namedview2990"
     showgrid="false"
     inkscape:zoom="1.0757143"
     inkscape:cx="400"
     inkscape:cy="350"
     inkscape:window-x="-4"
     inkscape:window-y="-4"
     inkscape:window-maximized="1"
     inkscape:current-layer="svg2" />
  <defs
     id="defs4" />
  <g
     id="layer1">
    <path
       d="M 608.57143,535.71426 L 216.26567,535.20781 L 20.551383,195.20783 L 217.14286,-144.2857 L 609.44863,-143.77926 L 805.16291,196.22073 L 608.57143,535.71426 z"
       transform="matrix(0.8476488,0,0,0.8476488,59.465297,187.03306)"
       id="path4212"
       style="opacity:1;fill:none;fill-opacity:1;fill-rule:nonzero;stroke:#000000;stroke-width:41.74102402;stroke-linecap:round;stroke-linejoin:miter;stroke-miterlimit:4;stroke-dasharray:none;stroke-opacity:1" />
    <path
       d="M 309.46667,165.23313 C 257.85,165.23313 215.62216,209.87278 215.62217,264.46781 C 215.62216,301.85914 235.42753,334.59497 264.49318,351.51238 C 235.42868,368.43017 215.62216,401.16654 215.62217,438.55696 C 215.62216,493.15199 257.85,537.79166 309.46667,537.79165 C 335.72914,537.79165 359.5545,526.23955 376.63667,507.68954 L 351.78653,482.8394 C 341.03282,494.33816 326.0848,501.41482 309.46667,501.41481 C 276.46423,501.41481 250.00879,473.4637 250.00879,438.55696 C 250.00879,404.24979 275.57207,376.66504 307.78051,375.72675 L 307.66994,375.28448 L 349.6581,375.28448 L 349.6581,354.11073 L 349.6581,348.91404 L 349.6581,327.74029 L 307.66994,327.74029 L 307.78051,327.29802 C 275.57207,326.35974 250.00879,298.77497 250.00879,264.46781 C 250.00879,229.56109 276.46423,201.60996 309.46667,201.60996 C 326.0848,201.60996 341.03282,208.68661 351.78653,220.18537 L 376.63667,195.33524 C 359.5545,176.78524 335.72914,165.23313 309.46667,165.23313 z M 422.57763,332.08008 L 422.57763,367.4618 L 434.57425,367.4618 C 442.05042,367.4618 445.6138,369.26058 448.94807,375.0357 L 484.1363,436.06918 L 448.31231,498.20834 C 444.97804,503.98346 441.41462,505.78224 433.93848,505.78224 L 421.94186,505.78224 L 421.94186,541.16397 L 433.93848,541.16397 C 451.47178,541.16397 469.48944,532.31525 478.96726,515.8992 L 504.56372,471.50619 L 530.18783,515.8992 C 539.66564,532.31525 557.68331,541.16397 575.21661,541.16397 L 587.21323,541.16397 L 587.21323,505.78224 L 575.21661,505.78224 C 567.74046,505.78224 564.17705,503.98346 560.84278,498.20834 L 525.01878,436.06918 L 560.20702,375.0357 C 563.54128,369.26058 567.10466,367.4618 574.58084,367.4618 L 586.57746,367.4618 L 586.57746,332.08008 L 574.58084,332.08008 C 557.04754,332.08008 539.02987,340.92879 529.55207,357.34484 L 504.56372,400.65981 L 479.60302,357.34484 C 470.12521,340.92879 452.10755,332.08008 434.57425,332.08008 L 422.57763,332.08008 z"
       id="path4214"
       style="opacity:1;fill:#000000;fill-opacity:1;fill-rule:nonzero;stroke:none;stroke-width:43.6022644;stroke-linecap:round;stroke-linejoin:miter;stroke-miterlimit:4;stroke-dasharray:none;stroke-opacity:1" />
  </g>
  <path
     style="fill:#ffff00;fill-opacity:1"
     d="M 175.75759,487.73417 97.929519,352.54351 175.9005,217.9185 253.87148,83.293493 394.10041,83.007956 c 77.12592,-0.157044 147.34049,-8.28e-4 156.03239,0.347147 l 15.80345,0.632683 77.4711,134.664944 77.47109,134.66493 -77.9359,134.76527 -77.9359,134.76526 -155.71049,0.0383 -155.71049,0.0383 -77.82807,-135.19064 z m 272.19966,51.93978 c 8.17046,-2.12813 17.56719,-7.53059 23.48156,-13.50026 4.0946,-4.1329 8.50792,-10.90325 19.21262,-29.47362 l 13.89696,-24.10825 7.81875,13.58456 c 22.34083,38.81575 25.09359,42.43075 37.12444,48.75278 8.4424,4.43636 14.83401,5.99976 27.66465,6.76684 l 10.62597,0.63528 0,-18.64647 0,-18.64648 -10.2102,-0.31464 c -9.92741,-0.30595 -10.28684,-0.3919 -12.97716,-3.1035 -1.52184,-1.53387 -10.90092,-16.90806 -20.84242,-34.16488 l -18.07546,-31.37602 18.32612,-31.77904 c 11.07029,-19.19683 19.342,-32.53843 20.89195,-33.69702 2.12482,-1.5883 4.2324,-1.97247 12.2617,-2.23499 l 9.69586,-0.31702 0,-18.04287 0,-18.04288 -10.03045,0 c -17.04345,0 -28.83494,4.46964 -39.23914,14.87384 -6.02821,6.02821 -7.35909,8.0941 -25.22613,39.15766 l -7.81852,13.59327 -10.66891,-18.63967 c -14.48849,-25.31287 -18.35813,-31.10876 -24.15623,-36.18079 -10.08861,-8.82528 -21.70224,-12.80431 -37.372,-12.80431 l -10.03045,0 0,18.04288 0,18.04287 9.69585,0.31702 c 8.02931,0.26252 10.13689,0.64669 12.26171,2.23499 1.54994,1.15859 9.82166,14.50019 20.89195,33.69702 l 18.32612,31.77904 -18.07546,31.37602 c -9.9415,17.25682 -19.32059,32.63101 -20.84242,34.16488 -2.69033,2.7116 -3.04975,2.79755 -12.97717,3.1035 l -10.2102,0.31464 0,18.64648 0,18.64647 10.62597,-0.63528 c 5.84428,-0.3494 13.02184,-1.25932 15.95014,-2.02205 l 0,0 z m -125.08569,-2.68071 c 18.55838,-2.79764 37.35679,-12.12672 49.6851,-24.65723 l 4.62837,-4.70428 -12.67924,-12.67924 -12.67925,-12.67925 -4.94371,4.32464 c -5.82301,5.09382 -14.85083,10.0111 -22.64644,12.33505 -8.35508,2.49074 -22.31639,2.29017 -30.67729,-0.44072 -9.25806,-3.02393 -17.39034,-7.81725 -23.64346,-13.93593 -20.24475,-19.80949 -25.04291,-49.21733 -12.30209,-75.39941 4.57004,-9.39134 16.39543,-21.46912 25.71978,-26.26874 11.3654,-5.85023 14.92201,-6.43962 42.06508,-6.97097 l 24.40239,-0.47769 0,-23.95209 0,-23.95208 -24.40239,-0.45971 c -26.66495,-0.50233 -30.67349,-1.12575 -41.09623,-6.39134 -15.43511,-7.79784 -26.94853,-22.25737 -31.72872,-39.8476 -2.246,-8.26483 -2.27081,-24.40812 -0.05,-32.53652 7.57522,-27.72629 30.51516,-46.09801 57.30392,-45.89252 13.74222,0.10542 26.86012,5.05064 37.05547,13.96928 l 4.94371,4.32464 12.69895,-12.74485 12.69895,-12.74484 -5.76644,-5.46329 c -39.5365,-37.45794 -102.49635,-31.64665 -135.4363,12.50097 -14.1017,18.89976 -20.38408,37.96196 -20.3854,61.85407 -9.3e-4,22.20439 5.15084,39.49142 17.46028,58.58547 4.65594,7.22217 17.3952,20.21404 24.34694,24.82973 2.73541,1.81622 4.97348,3.6007 4.97348,3.96552 0,0.36481 -2.55114,2.45282 -5.66919,4.64002 -39.56443,27.75286 -52.93058,84.96039 -30.23732,129.41665 14.22681,27.87042 39.57335,46.79064 68.90784,51.43707 10.07474,1.59579 16.94301,1.59959 27.45323,0.0151 l 0,4e-5 z"
     id="path2994"
     inkscape:connector-curvature="0" />
</svg>
